<svg xmlns="http://www.w3.org/2000/svg" xmlns:xlink="http://www.w3.org/1999/xlink" viewBox="0 0 15 50"
  id="icon-menu-retract">

  <g id="icon-menu-retract_菜单栏" stroke="none" stroke-width="1" fill="none" fill-rule="evenodd">
    <g id="icon-menu-retract_画板" transform="translate(-99.000000, -80.000000)">
      <g id="icon-menu-retract_编组备份-2" transform="translate(99.000000, 79.000000)">
        <path
          d="M0,0.807 L11.6575959,2.74867848 C13.5863478,3.07013713 15,4.73889757 15,6.69425418 L15,6.69425418 L15,45.3057458 C15,47.2611024 13.5863478,48.9298629 11.6575959,49.2513215 L11.6575959,49.2513215 L0,51.193 L0,50.1804604 L11.493197,48.2649276 L11.6719566,48.2295855 C13.0262734,47.9191629 14,46.7111584 14,45.3057458 L14,45.3057458 L14,6.69425418 L13.9945267,6.51211656 C13.910976,5.12519349 12.8794874,3.96612081 11.493197,3.73507241 L11.493197,3.73507241 L0,1.81953958 L0,0.807 Z"
          id="icon-menu-retract_形状结合" fill="#EBEDF2" fill-rule="nonzero"></path>
        <path
          d="M0,1.81953958 L11.493197,3.73507241 C12.8794874,3.96612081 13.910976,5.12519349 13.9945267,6.51211656 L14,6.69425418 L14,45.3057458 C14,46.7111584 13.0262734,47.9191629 11.6719566,48.2295855 L11.493197,48.2649276 L0,50.1804604 L0,1.81953958 Z"
          id="icon-menu-retract_形状结合" fill="#FFFFFF" fill-rule="nonzero"></path>
        <polygon id="icon-menu-retract_路径-5" fill="#1F2126" points="5 22 5 30.5 10 26"></polygon>
      </g>
    </g>

  </g>
</svg>